# xmcd
#
# Track frame offsets:
#	150
#	24285
#	50779
#	78545
#	97417
#	116717
#	135908
#	156983
#
# Disc length: 2356 seconds
#
# Revision: 0
# Processed by: cddbd v1.5.2PL0 Copyright (c) Steve Scherf et al.
# Submitted via: EZCDAudioConverter 8.0.2.1
#
DISCID=69093208
DTITLE=Thùy Trang - Tương Tư nàng Ca Sỹ
DYEAR=2002
DGENRE=
TTITLE0=Thùy Trang, Minh Thuận - Anh chàng nhà quê
TTITLE1=Thùy Trang - Chuyện vườn sầu riêng
TTITLE2=Thùy Trang - Sa mưa giông
TTITLE3=Thùy Trang, Thành Lộc - Đò dọc đò ngang
TTITLE4=Thùy Trang - Tương Tư nàng Ca Sỹ
TTITLE5=Thùy Trang - Thôi anh hãy về đi
TTITLE6=Thùy Trang, Lâm Minh - Lý con sáo Bạc Liêu
TTITLE7=Thùy Trang - Lý ngựa tình thiêng
EXTD=
EXTT0=
EXTT1=
EXTT2=
EXTT3=
EXTT4=
EXTT5=
EXTT6=
EXTT7=
PLAYORDER=
